# xmcd
#
# Track frame offsets:
#	150
#	29829
#	56806
#	84118
#	102847
#	132480
#	155721
#	180874
#	203720
#	225626
#	256172
#	283802
#
# Disc length: 4061 seconds
#
# Revision: 1
# Processed by: cddbd v1.5.1PL0 Copyright (c) Steve Scherf et al.
# Submitted via: CDex 1.50Beta5
#
DISCID=a20fdb0c
DTITLE=さだまさし - 特集さだまさし 虹の章
DYEAR=2003
DGENRE=
TTITLE0=虹〜ヒーロー〜
TTITLE1=虹の木
TTITLE2=天然色の化石
TTITLE3=リンドバーグの墓〜Charies A.Lindbergh Grave〜
TTITLE4=ONLY〜薔薇園〜
TTITLE5=永遠まで
TTITLE6=おそらくあなたに聴こえない小夜曲〜MOON BOW〜
TTITLE7=青の季節
TTITLE8=秋の虹
TTITLE9=虹〜ヒーロー〜(ライブバージョン)
TTITLE10=虹の木(ライブバージョン)
TTITLE11=秋の虹(ライブバージョン)
EXTD=
EXTT0=
EXTT1=
EXTT2=
EXTT3=
EXTT4=
EXTT5=
EXTT6=
EXTT7=
EXTT8=
EXTT9=
EXTT10=
EXTT11=
PLAYORDER=
